<svg width="24" height="24" viewBox="0 0 24 24" fill="none" xmlns="http://www.w3.org/2000/svg">
<path d="M13.875 13.875C13.875 14.4885 13.5803 15.033 13.125 15.375V18C13.125 18.2984 13.0065 18.5845 12.7955 18.7955C12.5845 19.0065 12.2984 19.125 12 19.125C11.7016 19.125 11.4155 19.0065 11.2045 18.7955C10.9935 18.5845 10.875 18.2984 10.875 18V15.375C10.6193 15.1832 10.4169 14.9293 10.287 14.6373C10.157 14.3453 10.1039 14.0249 10.1326 13.7066C10.1613 13.3883 10.2709 13.0826 10.451 12.8186C10.631 12.5545 10.8756 12.3409 11.1615 12.1979C11.4473 12.055 11.765 11.9875 12.0843 12.0019C12.4036 12.0163 12.7139 12.112 12.9857 12.28C13.2576 12.4481 13.482 12.6828 13.6377 12.9619C13.7933 13.2411 13.875 13.5554 13.875 13.875Z" fill="black"/>
<path d="M7.5 5.25C7.5 4.05653 7.97411 2.91193 8.81802 2.06802C9.66193 1.22411 10.8065 0.75 12 0.75C13.1935 0.75 14.3381 1.22411 15.182 2.06802C16.0259 2.91193 16.5 4.05653 16.5 5.25V7.5H18C18.7956 7.5 19.5587 7.81607 20.1213 8.37868C20.6839 8.94129 21 9.70435 21 10.5V20.25C21 21.0456 20.6839 21.8087 20.1213 22.3713C19.5587 22.9339 18.7956 23.25 18 23.25H6C5.20435 23.25 4.44129 22.9339 3.87868 22.3713C3.31607 21.8087 3 21.0456 3 20.25V10.5C3 9.70435 3.31607 8.94129 3.87868 8.37868C4.44129 7.81607 5.20435 7.5 6 7.5H7.5V5.25ZM14.625 5.25C14.625 4.55381 14.3484 3.88613 13.8562 3.39384C13.3639 2.90156 12.6962 2.625 12 2.625C11.3038 2.625 10.6361 2.90156 10.1438 3.39384C9.65156 3.88613 9.375 4.55381 9.375 5.25V7.5H14.625V5.25ZM6 9C5.60218 9 5.22064 9.15804 4.93934 9.43934C4.65804 9.72064 4.5 10.1022 4.5 10.5V20.25C4.5 20.6478 4.65804 21.0294 4.93934 21.3107C5.22064 21.592 5.60218 21.75 6 21.75H18C18.3978 21.75 18.7794 21.592 19.0607 21.3107C19.342 21.0294 19.5 20.6478 19.5 20.25V10.5C19.5 10.1022 19.342 9.72064 19.0607 9.43934C18.7794 9.15804 18.3978 9 18 9H6Z" fill="black"/>
</svg>
