<svg width="28" height="28" viewBox="0 0 28 28" fill="none" xmlns="http://www.w3.org/2000/svg">
<mask id="mask0_1245_109" style="mask-type:luminance" maskUnits="userSpaceOnUse" x="0" y="0" width="28" height="28">
<path d="M12.8213 1.52585C13.5236 1.01354 14.4764 1.01354 15.1787 1.52585L16.9736 2.83525C17.3169 3.08568 17.7311 3.22026 18.156 3.21948L20.3784 3.21537C21.2477 3.21377 22.0184 3.77386 22.2854 4.60112L22.9678 6.71547C23.0983 7.11996 23.3543 7.47234 23.6986 7.72151L25.4987 9.02408C26.203 9.53367 26.4974 10.4398 26.2272 11.266L25.5366 13.3777C25.4045 13.7816 25.4045 14.2171 25.5366 14.621L26.2272 16.7327C26.4974 17.5589 26.203 18.465 25.4987 18.9746L23.6986 20.2772C23.3543 20.5264 23.0983 20.8787 22.9678 21.2832L22.2854 23.3976C22.0184 24.2248 21.2477 24.7849 20.3784 24.7833L18.156 24.7792C17.7311 24.7784 17.3169 24.913 16.9736 25.1635L15.1787 26.4728C14.4764 26.9852 13.5236 26.9852 12.8213 26.4728L11.0264 25.1635C10.6831 24.913 10.2689 24.7784 9.84399 24.7792L7.62162 24.7833C6.75234 24.7849 5.98157 24.2248 5.71459 23.3976L5.03225 21.2832C4.90171 20.8787 4.6457 20.5264 4.30137 20.2772L2.50128 18.9746C1.79705 18.465 1.50262 17.5589 1.77281 16.7327L2.46338 14.621C2.59546 14.2171 2.59546 13.7816 2.46338 13.3777L1.77281 11.266C1.50262 10.4398 1.79705 9.53367 2.50128 9.02408L4.30137 7.72151C4.6457 7.47234 4.90171 7.11996 5.03225 6.71547L5.71459 4.60112C5.98157 3.77386 6.75234 3.21377 7.62162 3.21537L9.84399 3.21948C10.2689 3.22026 10.6831 3.08568 11.0264 2.83525L12.8213 1.52585Z" fill="white" stroke="white" stroke-width="2" stroke-linecap="round" stroke-linejoin="round"/>
<path d="M9.33337 13.9993L11.2525 15.9185C12.0335 16.6995 13.2999 16.6995 14.0809 15.9185L19.3334 10.666" stroke="black" stroke-width="2" stroke-linecap="round" stroke-linejoin="round"/>
</mask>
<g mask="url(#mask0_1245_109)">
<path d="M-2 0C-2 -1.10457 -1.10457 -2 0 -2H28C29.1046 -2 30 -1.10457 30 0V28C30 29.1046 29.1046 30 28 30H0C-1.10457 30 -2 29.1046 -2 28V0Z" fill="#0AE023"/>
</g>
</svg>
