<svg width="16" height="16" viewBox="0 0 16 16" fill="none" xmlns="http://www.w3.org/2000/svg">
<path d="M9.27337 1.94L7.88671 3.33333H9.33337C10.7479 3.33333 12.1044 3.89524 13.1046 4.89543C14.1048 5.89562 14.6667 7.25218 14.6667 8.66667H13.3334C13.3334 7.6058 12.9119 6.58839 12.1618 5.83824C11.4117 5.08809 10.3942 4.66667 9.33337 4.66667H7.88671L9.28004 6.06L8.33337 7L5.33337 4L6.27337 3.06L8.33337 1L9.27337 1.94ZM1.33337 8V14.6667H12V8H1.33337ZM2.66671 12.3733V10.3C3.06745 10.0672 3.40062 9.73408 3.63337 9.33333H9.70004C9.93279 9.73408 10.266 10.0672 10.6667 10.3V12.3733C10.2717 12.6061 9.94334 12.9367 9.71337 13.3333H3.63337C3.39971 12.935 3.06662 12.6042 2.66671 12.3733ZM6.66671 12.6667C7.21871 12.6667 7.66671 12.07 7.66671 11.3333C7.66671 10.5967 7.21871 10 6.66671 10C6.11471 10 5.66671 10.5967 5.66671 11.3333C5.66671 12.07 6.11471 12.6667 6.66671 12.6667Z" fill="white"/>
</svg>
