<svg width="16" height="16" viewBox="0 0 16 16" fill="none" xmlns="http://www.w3.org/2000/svg">
<path d="M4 5.33203H6.66667" stroke="white" stroke-width="1.5" stroke-linecap="round" stroke-linejoin="round"/>
<path d="M13.8887 6H12.154C10.964 6 10 6.89533 10 8C10 9.10467 10.9647 10 12.1533 10H13.8887C13.9447 10 13.972 10 13.9953 9.99867C14.3553 9.97667 14.642 9.71067 14.6653 9.37667C14.6667 9.35533 14.6667 9.32933 14.6667 9.278V6.722C14.6667 6.67067 14.6667 6.64467 14.6653 6.62333C14.6413 6.28933 14.3553 6.02333 13.9953 6.00133C13.9727 6 13.9447 6 13.8887 6Z" stroke="white" stroke-width="1.5"/>
<path d="M13.9767 5.99935C13.9247 4.75135 13.758 3.98602 13.2187 3.44735C12.438 2.66602 11.1807 2.66602 8.66671 2.66602H6.66671C4.15271 2.66602 2.89537 2.66602 2.11471 3.44735C1.33404 4.22868 1.33337 5.48535 1.33337 7.99935C1.33337 10.5133 1.33337 11.7707 2.11471 12.5513C2.89604 13.332 4.15271 13.3327 6.66671 13.3327H8.66671C11.1807 13.3327 12.438 13.3327 13.2187 12.5513C13.758 12.0127 13.9254 11.2473 13.9767 9.99935" stroke="white" stroke-width="1.5"/>
<path d="M11.994 8H12.0007" stroke="white" stroke-width="2" stroke-linecap="round" stroke-linejoin="round"/>
</svg>
