<svg width="16" height="16" viewBox="0 0 16 16" fill="none" xmlns="http://www.w3.org/2000/svg">
<path d="M10.6233 4.03906H5.37668C5.02305 4.03906 4.68392 4.17954 4.43387 4.42959C4.18382 4.67964 4.04334 5.01877 4.04334 5.3724V9.3724C4.04273 9.54766 4.07679 9.72132 4.14358 9.88337C4.21037 10.0454 4.30856 10.1926 4.43249 10.3166C4.55643 10.4405 4.70366 10.5387 4.8657 10.6055C5.02775 10.6723 5.20141 10.7063 5.37668 10.7057H10.6233C10.977 10.7057 11.3161 10.5653 11.5662 10.3152C11.8162 10.0652 11.9567 9.72602 11.9567 9.3724V5.3724C11.9556 5.0191 11.8148 4.68057 11.565 4.43075C11.3152 4.18093 10.9766 4.04012 10.6233 4.03906ZM11.29 9.3724C11.29 9.54921 11.2198 9.71878 11.0947 9.8438C10.9697 9.96882 10.8002 10.0391 10.6233 10.0391H5.37668C5.28888 10.04 5.20179 10.0233 5.1205 9.99013C5.03922 9.95694 4.96537 9.90787 4.90329 9.84579C4.8412 9.7837 4.79213 9.70986 4.75894 9.62857C4.72575 9.54728 4.70912 9.46019 4.71001 9.3724V5.3724C4.71001 5.19559 4.78025 5.02602 4.90527 4.90099C5.0303 4.77597 5.19987 4.70573 5.37668 4.70573H10.6233C10.8002 4.70573 10.9697 4.77597 11.0947 4.90099C11.2198 5.02602 11.29 5.19559 11.29 5.3724V9.3724Z" fill="white"/>
<path d="M12.29 2.03906H3.71C3.26835 2.04029 2.84514 2.21628 2.53285 2.52858C2.22056 2.84087 2.04457 3.26408 2.04333 3.70573V11.0391C2.04333 11.4811 2.21893 11.905 2.53149 12.2176C2.84405 12.5301 3.26797 12.7057 3.71 12.7057V12.9591C3.71 13.2243 3.81536 13.4786 4.00289 13.6662C4.19043 13.8537 4.44479 13.9591 4.71 13.9591H5.66333C5.92855 13.9591 6.18291 13.8537 6.37044 13.6662C6.55798 13.4786 6.66333 13.2243 6.66333 12.9591V12.7057H9.33V12.9591C9.33 13.2243 9.43536 13.4786 9.62289 13.6662C9.81043 13.8537 10.0648 13.9591 10.33 13.9591H11.29C11.5552 13.9591 11.8096 13.8537 11.9971 13.6662C12.1846 13.4786 12.29 13.2243 12.29 12.9591V12.7057C12.732 12.7057 13.156 12.5301 13.4685 12.2176C13.7811 11.905 13.9567 11.4811 13.9567 11.0391V3.70573C13.9554 3.26408 13.7794 2.84087 13.4672 2.52858C13.1549 2.21628 12.7317 2.04029 12.29 2.03906ZM5.99667 12.9591C5.99667 13.0475 5.96155 13.1323 5.89904 13.1948C5.83653 13.2573 5.75174 13.2924 5.66333 13.2924H4.71C4.6216 13.2924 4.53681 13.2573 4.4743 13.1948C4.41179 13.1323 4.37667 13.0475 4.37667 12.9591V12.7057H5.99667V12.9591ZM11.6233 12.9591C11.6233 13.0475 11.5882 13.1323 11.5257 13.1948C11.4632 13.2573 11.3784 13.2924 11.29 13.2924H10.3333C10.2455 13.2907 10.1617 13.255 10.0995 13.1929C10.0374 13.1307 10.0017 13.0469 10 12.9591V12.7057H11.6267L11.6233 12.9591ZM13.29 11.0391C13.29 11.3043 13.1846 11.5586 12.9971 11.7462C12.8096 11.9337 12.5552 12.0391 12.29 12.0391H3.71C3.44479 12.0391 3.19043 11.9337 3.00289 11.7462C2.81536 11.5586 2.71 11.3043 2.71 11.0391V3.70573C2.71 3.44051 2.81536 3.18616 3.00289 2.99862C3.19043 2.81109 3.44479 2.70573 3.71 2.70573H12.29C12.5552 2.70573 12.8096 2.81109 12.9971 2.99862C13.1846 3.18616 13.29 3.44051 13.29 3.70573V11.0391Z" fill="white"/>
<path d="M9.51003 7.03913H9.10336C9.05278 6.85468 8.95526 6.68649 8.82031 6.55095C8.68536 6.41542 8.51759 6.31717 8.33336 6.2658V5.85913C8.3325 5.81623 8.32319 5.77392 8.30596 5.73462C8.28874 5.69532 8.26394 5.65979 8.23299 5.63008C8.20203 5.60036 8.16553 5.57703 8.12556 5.56143C8.08558 5.54582 8.04293 5.53825 8.00003 5.53913C7.91389 5.53906 7.83106 5.57235 7.76892 5.632C7.70678 5.69166 7.67014 5.77306 7.6667 5.85913V6.2658C7.48185 6.31667 7.31339 6.41469 7.17782 6.55026C7.04226 6.68583 6.94424 6.85429 6.89336 7.03913H6.4867C6.40062 7.04258 6.31922 7.07921 6.25957 7.14135C6.19991 7.2035 6.16663 7.28632 6.1667 7.37247C6.16581 7.41537 6.17339 7.45802 6.18899 7.49799C6.2046 7.53796 6.22792 7.57447 6.25764 7.60543C6.28736 7.63638 6.32288 7.66118 6.36218 7.6784C6.40148 7.69562 6.44379 7.70493 6.4867 7.7058H6.89336C6.94424 7.89065 7.04226 8.0591 7.17782 8.19467C7.31339 8.33024 7.48185 8.42826 7.6667 8.47913V8.89247C7.67017 8.97794 7.70703 9.05864 7.76936 9.11722C7.83168 9.17581 7.91451 9.20761 8.00003 9.2058C8.04254 9.20731 8.08493 9.20038 8.12474 9.18542C8.16456 9.17046 8.20102 9.14775 8.23201 9.11862C8.26301 9.08949 8.28792 9.0545 8.30532 9.01568C8.32271 8.97687 8.33224 8.93499 8.33336 8.89247V8.47913C8.51943 8.43073 8.68921 8.33354 8.82515 8.19759C8.9611 8.06164 9.05829 7.89187 9.1067 7.7058H9.51336C9.5564 7.70538 9.59891 7.69637 9.63842 7.6793C9.67793 7.66223 9.71363 7.63744 9.74343 7.6064C9.77324 7.57535 9.79654 7.53867 9.81199 7.4985C9.82743 7.45833 9.8347 7.41548 9.83336 7.37247C9.83425 7.32929 9.82656 7.28636 9.81075 7.24618C9.79493 7.20599 9.77131 7.16934 9.74124 7.13834C9.71117 7.10734 9.67526 7.08261 9.63557 7.06558C9.59588 7.04855 9.55321 7.03956 9.51003 7.03913ZM8.00003 7.87247C7.90114 7.87247 7.80447 7.84314 7.72224 7.7882C7.64002 7.73326 7.57593 7.65517 7.53809 7.56381C7.50025 7.47244 7.49034 7.37191 7.50964 7.27492C7.52893 7.17793 7.57655 7.08884 7.64648 7.01891C7.7164 6.94899 7.80549 6.90137 7.90248 6.88207C7.99947 6.86278 8.10001 6.87268 8.19137 6.91053C8.28273 6.94837 8.36082 7.01246 8.41576 7.09468C8.4707 7.1769 8.50003 7.27357 8.50003 7.37247C8.50003 7.50507 8.44735 7.63225 8.35358 7.72602C8.25981 7.81979 8.13264 7.87247 8.00003 7.87247Z" fill="white"/>
</svg>
